<svg id="visual" viewBox="0 0 1920 1080" width="1920" height="1080" xmlns="http://www.w3.org/2000/svg" xmlns:xlink="http://www.w3.org/1999/xlink" version="1.1"><rect width="1920" height="1080" fill="#181818"></rect><g><g transform="translate(392 352)"><path d="M0 -157L122.7 -97.9L153 34.9L68.1 141.4L-68.1 141.4L-153 34.9L-122.7 -97.9Z" fill="none" stroke="#a460f9" stroke-width="2"></path></g><g transform="translate(1680 375)"><path d="M0 -143L111.8 -89.2L139.4 31.8L62 128.8L-62 128.8L-139.4 31.8L-111.8 -89.2Z" fill="none" stroke="#a460f9" stroke-width="2"></path></g><g transform="translate(654 576)"><path d="M0 -147L114.9 -91.7L143.3 32.7L63.8 132.4L-63.8 132.4L-143.3 32.7L-114.9 -91.7Z" fill="none" stroke="#a460f9" stroke-width="2"></path></g><g transform="translate(1284 889)"><path d="M0 -137L107.1 -85.4L133.6 30.5L59.4 123.4L-59.4 123.4L-133.6 30.5L-107.1 -85.4Z" fill="none" stroke="#a460f9" stroke-width="2"></path></g><g transform="translate(818 923)"><path d="M0 -122L95.4 -76.1L118.9 27.1L52.9 109.9L-52.9 109.9L-118.9 27.1L-95.4 -76.1Z" fill="none" stroke="#a460f9" stroke-width="2"></path></g><g transform="translate(1075 329)"><path d="M0 -104L81.3 -64.8L101.4 23.1L45.1 93.7L-45.1 93.7L-101.4 23.1L-81.3 -64.8Z" fill="none" stroke="#a460f9" stroke-width="2"></path></g><g transform="translate(847 52)"><path d="M0 -95L74.3 -59.2L92.6 21.1L41.2 85.6L-41.2 85.6L-92.6 21.1L-74.3 -59.2Z" stroke="#a460f9" fill="none" stroke-width="2"></path></g><g transform="translate(1027 655)"><path d="M0 -150L117.3 -93.5L146.2 33.4L65.1 135.1L-65.1 135.1L-146.2 33.4L-117.3 -93.5Z" stroke="#a460f9" fill="none" stroke-width="2"></path></g><g transform="translate(14 174)"><path d="M0 -132L103.2 -82.3L128.7 29.4L57.3 118.9L-57.3 118.9L-128.7 29.4L-103.2 -82.3Z" stroke="#a460f9" fill="none" stroke-width="2"></path></g><g transform="translate(47 569)"><path d="M0 -88L68.8 -54.9L85.8 19.6L38.2 79.3L-38.2 79.3L-85.8 19.6L-68.8 -54.9Z" stroke="#a460f9" fill="none" stroke-width="2"></path></g><g transform="translate(1805 722)"><path d="M0 -132L103.2 -82.3L128.7 29.4L57.3 118.9L-57.3 118.9L-128.7 29.4L-103.2 -82.3Z" stroke="#a460f9" fill="none" stroke-width="2"></path></g><g transform="translate(282 799)"><path d="M0 -140L109.5 -87.3L136.5 31.2L60.7 126.1L-60.7 126.1L-136.5 31.2L-109.5 -87.3Z" stroke="#a460f9" fill="none" stroke-width="2"></path></g></g></svg>